<?xml version="1.0" encoding="UTF-8"?>
<svg version="1.1" viewBox="0 0 1692 1312" width="1280" height="1280" xmlns="http://www.w3.org/2000/svg">
<path transform="translate(0)" d="m0 0h1692v1312h-1692z" fill="#F3F3F2"/>
<path transform="translate(1388,622)" d="m0 0 43 1 1 20 1 54 38 1 4 2v20l1 33h-15l-30-1 1 6 1 62 2 11 4 7 5 3h9l11-3 3 1 5 16 5 12 5 16 1 9-9 6-17 6-11 2h-20l-20-4-13-5-10-9-8-9-8-16-4-16-1-17-1-75-23-2-1 6-8-1-16-8-5-1h-10l-10 2-12 6-10 9-7 9-5 11-1 5v14l3 10 7 12 9 10 11 7 10 3h18l13-4 8-4 4 1 7 14 9 17 7 17-12 6-19 7-11 3-16 2h-14l-16-2-19-5-14-6-11-7-10-8-15-15-10-14-8-17-5-17v-7h-128l4 15 7 11 7 7 12 6 14 2 14-1 11-3 9-5 12-10 2-1h6l36 18 6 5v6l-6 9-7 8-14 11-16 9-19 7-15 3-9 1h-21l-18-3-20-6-16-8-8-6-10-9-11-11-11-16-5-7-2-9 2 10 2 8v50l-5 1-67-1v-101l-1-23-7-14-8-8-10-5-4-1h-12l-12 5-12 11-6 8-2 4-1 100v25l-70 1-1-80v-123h70l-1 18 8-4 14-10 13-6 11-3 8-1h13l15 2 20 6 14 7 13 10 9 10 8 13 3 10-2 4-2-8v24l2-12 10-16 9-11 6-7 11-9 11-8 16-8 19-5 19-2h12l18 2 15 4 15 6 12 7 11 9 10 10 11 16 2 3 6-10 11-12 10-10 14-10 16-8 13-4 10-2 10-1h12l24 2 39 4 5 1v-76z" fill="#1A2E5B"/>
<path transform="translate(689,314)" d="m0 0h34l20 3 15 4 21 8 15 8 11 8 11 9 14 14-6 8-11 12-15 16-7 8-7 9-2 2-11-13-7-8-8-7-10-6-14-5-12-2h-20l-16 4-14 7-12 11-9 10-8 13-6 12-5 16-2 11-1 20 2 15 4 15 7 16 9 15 8 10 9 9 14 8 11 4 12 2h12l17-3 13-5 11-7 10-9 7-11 3-13 1-12h-55l-17-1v-57h145v-142l38-1 89 1 20 2 20 5 21 10 12 9 10 10 9 14 6 11 3 12 2 25-1 20-3 14-5 13-6 11-10 13-9 9-13 9-16 8-14 5-10 2-10 1-27 1h-32l1 15v104l-1 1h-68l-5-1-2-88-8 16-8 14-8 10-9 10-7 7-16 12-18 10-20 8-19 5-14 2h-35l-25-5-17-6-19-10-19-14-5-4v-2l-5-2-7-7-12-16-11-18-8-17-6-18-5-24-1-9v-26l3-27 5-19 7-18 8-16 11-16 12-14 13-13 15-11 16-9 20-8 18-4z" fill="#1A2E5B"/>
<path transform="translate(423,692)" d="m0 0h16l17 2 17 4 21 9 16 10 13 11 10 11 8 14 3 10 1-11 1-53 1-1h68l1 5v14l7-4 8-7 16-9 14-4 8-1h14l19 3 15 5 14 7 13 10 8 9 10 15 1 2v157h-53l-17-1-1-118-3-12-7-10-9-8-10-4-9-1-9 2-10 6-11 10-6 10-1 5v120l-1 1h-51l-18-1-1-7-1-31v-27h-2l-2 9-7 12-9 11-10 10-15 11-19 10-18 6-12 2-11 1h-16l-24-3-23-6-17-8-14-10-8-7-7-8-7-10-9-17-5-17-1-7v-27l2-15 5-15 10-17 10-12 17-13 14-8 13-6 18-5 12-2z" fill="#1A2E5B"/>
<path transform="translate(204,995)" d="m0 0h1230l9 1v31h-1240v-31z" fill="#01733D"/>
<path transform="translate(254,692)" d="m0 0h22l21 3 20 6 13 7 2 3-1 5-11 23-7 15-2 6-13-6-17-4h-12l-11 3-10 6-8 8-7 11-3 9-1 7 1 16 4 10 6 9 9 10 14 7 4 1h18l15-4 7-3h4l9 19 8 14 5 14-4 4-20 8-18 5-13 2h-19l-18-3-20-6-17-9-10-8-10-9-8-8-10-15-6-12-5-16-2-16v-10l2-17 5-16 8-15 10-13 10-11 11-9 14-9 13-6 15-4z" fill="#1A2E5B"/>
<path transform="translate(1151,100)" d="m0 0 10 2 23 8 24 10 24 11 24 13 19 12 15 10 13 10 11 9 15 14 8 8 8 10 10 13 14 21 10 17 11 23 9 24 5 15 7 34 4 33 1 18v37l-1 18-2 10-2 2h-14l-17-2-1-1v-13l1-27v-15l-1-26-4-31-6-26-8-24-9-21-8-16-20-30-9-11-11-12-13-13-11-9-15-12-16-11-22-13-25-13-29-11-26-8-3-3 1-12 5-21z" fill="#01733D"/>
<path transform="translate(1108,187)" d="m0 0 9 1 28 7 28 10 16 7 19 10 17 11 11 9 14 11 15 14 13 17 10 15 8 14 8 16 8 20 9 36 4 29 1 30v27l-1 1h-24l-2-1-2-46-2-24-5-27-4-15-8-21-8-16-7-12-8-11-9-10-16-16-11-9-13-10-15-9-23-12-19-7-22-6-21-5v-12z" fill="#01733D"/>
<path transform="translate(1075,381)" d="m0 0 2 1v3h2l3 7 4 4 7 17 4 18v23l-4 18-5 13-9 15-8 10-9 10-13 10-16 9-22 6-19 2-37 1h-15v117l-1 1h-73l-1-10 1-11 2 2h1l-1-2 56-1v-120l59-2 16-2 16-5 16-8 11-7 12-11 8-10 8-14 6-16 2-11 1-20-2-25-2-8z" fill="#A8AFBC"/>
<path transform="translate(1051,808)" d="m0 0h128l3 15 6 16 7 13 10 13 7 7-4 1-2 4-11 11-8 7-11 8h-2v2l-16 8-9 3-17 3-9 1h-33l-18-4-16-7-11-6-11-8-4-4 1-2 18 8 21 6 14 2h21l20-3 18-6 16-8 13-9 9-8 8-11 1-2v-6l-9-6-27-13-5-3h-6l-20 15-9 3-15 2-14-1-11-4-8-6-8-9-5-10z" fill="#F1F2F1"/>
<path transform="translate(423,752)" d="m0 0h12l12 3 12 6 9 9 6 12 2 8v16l-3 12-5 9-4 5-11 8-10 4-4 1h-21l-11-4-10-8-8-10-5-11-1-6v-17l4-12 8-11 8-7 10-5z" fill="#F3F3F2"/>
<path transform="translate(849,552)" d="m0 0h1v54l-1 5-3 1-9 11-9 9-11 9-11 8-14 8-12 5-15 5-22 5h-43l-23-5-17-5-17-8-17-12-10-9-11-12-6-8-4-7-5-5 1-2 7 7 4 2v2l4 2 17 13 16 9 11 5 15 5 22 4h35l19-3 20-6 22-10 14-9 14-11 11-11 10-13 9-16 7-14z" fill="#A8AFBC"/>
<path transform="translate(1332,1108)" d="m0 0h12l11 3 10 6 5 4 7 11 3 8 1 6v15l-3 11-5 10-5 6-8 6-9 4-4 1h-17l-10-3-10-7-7-8-5-10-3-12v-12l3-12 6-10 7-8 10-6z" fill="#F2F2F2"/>
<path transform="translate(596,1108)" d="m0 0h11l11 3 11 6 7 7 6 12 2 7v21l-4 12-7 10-9 8-9 4-5 1h-16l-10-3-9-6-9-10-5-11-2-9v-14l3-11 4-8 9-10 10-6z" fill="#F2F2F1"/>
<path transform="translate(925,380)" d="m0 0h29l15 2 13 5 9 7 6 8 4 11v19l-4 11-9 10-12 6-15 4-7 1-26 1-3-1z" fill="#F3F3F2"/>
<path transform="translate(731,1109)" d="m0 0h26l16 3 10 5 7 6 7 11 3 12v17l-4 12-8 11h-2v2l-9 6-10 3-9 1h-28v-88z" fill="#F1F2F1"/>
<path transform="translate(1083,272)" d="m0 0 10 3 29 10 16 7 16 10 16 13 8 7 10 9 9 10 13 17 10 18 9 25 5 23 1 8 1 28-1 14-5 1-13-2-1-1-1-32-4-27-4-15-8-19-11-18-11-13-12-12-15-11-15-9-19-9-30-11-5-2-1-7 2-14z" fill="#01733D"/>
<path transform="translate(700,381)" d="m0 0h20l16 3 14 6 12 9 9 9 9 12v4l-5-1-10-7-16-8-11-3h-18l-11 1-12 4-11 6-10 8-7 7-10 14-8 14-5 14-1 5v59l-2 2-8-15-6-18-2-10-1-17 2-19 4-16 6-14 8-13 8-10 12-12 11-7 13-5z" fill="#A8AFBC"/>
<path transform="translate(956,1098)" d="m0 0h28l15 3 8 5 7 8 4 9v17l-6 12-8 7-8 4-9 2h-21v43l-10 1-3-1 1-108z" fill="#19315A"/>
<path transform="translate(654,745)" d="m0 0 9 1 10 4 10 9-1 3-20 3-12 6-10 9-6 10-1 3-1 121h-62l-7-1v-9l4-3 41-1 8-1v-120l3-9 7-9 10-9 12-6z" fill="#AAB1BD"/>
<path transform="translate(719,1098)" d="m0 0h43l17 4 12 7 5 4 8 10 6 12 3 11v16l-3 11-6 11-11 12-11 7-11 4-14 2h-38l-1-1v-109zm12 11-1 1v88h28l13-2 9-4 6-4v-2l4-2 6-9 4-12v-17l-3-12-7-11-10-8-11-4-12-2z" fill="#1A305A"/>
<path transform="translate(873,746)" d="m0 0h12l10 4 6 4 4 5v3l-18 2-10 4-11 8-6 8-3 6-1 16-1 65-1 42h-67v-8l1-1 41-1 5-1-1-2h7l-1-2v-23l1-100 6-10 11-11 10-6z" fill="#9FACB5"/>
<path transform="translate(1448,1094)" d="m0 0 5 2 11 27 15 41 9 25 7 17v3l-14-1-8-26v-2h-42l-6 15-4 12-2 2h-10l-2-1 3-9 10-25 11-30 13-36z" fill="#1A305A"/>
<path transform="translate(487,1094)" d="m0 0 4 2v3h2l5 11 11 30 7 19 15 42 2 4v4h-11l-2-1-8-25-1-2-36-1-6-1-3 10-7 19-1 1h-12l3-10 8-20 15-41 7-20z" fill="#19315A"/>
<path transform="translate(592,1097)" d="m0 0h20l12 4 9 5 10 9 7 10 5 11 2 9v15l-2 10-5 11-7 11-10 9-11 6-11 3h-18l-13-4-12-7-10-10-8-15-2-6-1-7v-15l3-14 7-13 9-10 11-7 11-4zm4 11-13 4-9 6-8 9-5 10-2 9v14l3 12 5 9 9 10 10 6 8 2h16l10-3 9-6 8-9 5-10 2-7v-21l-4-12-6-9-8-7-10-5-9-2z" fill="#1A305A"/>
<path transform="translate(1329,1097)" d="m0 0h19l13 4 11 7 10 10 6 10 4 10 1 5v19l-3 12-5 10-8 10-9 8-10 5-11 3h-18l-15-5-13-9-8-9-8-16-1-5v-24l4-13 6-11 10-10 11-7 9-3zm3 11-11 3-11 7-7 8-6 12-2 9v12l3 12 5 10 9 10 10 6 8 2h17l11-4 6-4 6-5 7-11 3-9 1-5v-15l-3-12-6-10-4-5-11-7-8-3-5-1z" fill="#1A2F5B"/>
<path transform="translate(119,1096)" d="m0 0h11l12 3 14 7 7 6 1 2v6l-3 3-7-3-14-8-9-3h-12l-13 4-9 6-8 9-4 8-2 9v14l2 11 7 13 8 8 10 5 8 2h16l12-4 9-7 3-5 1-7v-15l-16 1h-17l-1-1v-10l1-1h41l3 1v34l-3 6-6 7-10 7-9 4-9 2h-17l-11-3-12-6-8-7-9-13-5-12-1-5v-21l4-12 4-8 8-10 9-8 12-6z" fill="#1A305A"/>
<path transform="translate(543,834)" d="m0 0h2l1 27v17l-3 1-2 4-11 11-15 10-13 7-14 4-5 2-19 3h-35l-18-3-17-6-7-4-10-4-9-6-6-5v-2l6 2 13 5 19 5 24 3h16l18-2 15-4 16-7 14-8 14-11 10-10 8-11 6-12z" fill="#AAB1BD"/>
<path transform="translate(1191,853)" d="m0 0h5l8 11 8 8-4 1-2 4-11 11-8 7-11 8h-2v2l-16 8-9 3-17 3-9 1h-33l-18-4-16-7-11-6-11-8-4-4 1-2 18 8 21 6 14 2h21l20-3 18-6 16-8 13-9 9-8 8-11z" fill="#A9B0BC"/>
<path transform="translate(1535,1096)" d="m0 0h12l11 4 9 6 5 6-2 5-4 4-7-6-8-5-8-2-8 1-8 5-3 6v9l4 7 8 6 21 10 11 9 5 9 2 7v7l-4 10-7 9-10 6-4 1h-16l-14-5-9-7-4-5-1-7 2-2 6 1 12 10 10 4h12l6-3 5-5 3-5v-11l-4-6-9-7-17-8-11-8-5-5-4-6-1-4v-10l3-9 6-8 9-6z" fill="#19305A"/>
<path transform="translate(197,1098)" d="m0 0h57v9l-1 2h-45v37h35v11h-36l1 40 46 1 1 1v9l-2 1h-56z" fill="#19305A"/>
<path transform="translate(1148,1096)" d="m0 0 12 1 11 4 9 7 2 5-3 7-10-5-8-5-11-2-8 3-5 5-2 4v11l4 6 9 6 21 10 10 9 5 10 1 3v11l-5 10-7 8-12 6h-17l-12-4-10-7-5-6-1-6 7-3 8 7 8 6 7 2h12l8-4 5-6 1-2v-12l-4-7-9-6-20-10-8-6-7-8-2-6v-13l4-9 7-8 10-5z" fill="#19305A"/>
<path transform="translate(1042,1098)" d="m0 0h57v10l-1 1h-46l1 36 35 1v11l-35 1v39l46 1 1 1v9l-3 1h-55z" fill="#1A2F5B"/>
<path transform="translate(299,1096)" d="m0 0h11l12 4 9 6 5 6-1 4-6 3-4-2-9-6-9-3-9 1-7 5-3 6v11l4 6 5 4 22 10 11 8 6 9 1 4v15l-6 12-8 7-10 4h-16l-12-4-12-9-5-8 3-3 8-1 9 10 6 3 5 1h12l8-4 5-6 1-3v-12l-4-6-5-4-16-8-11-6-8-7-5-10v-15l4-9 7-8 8-4z" fill="#19315A"/>
<path transform="translate(836,1098)" d="m0 0h57v9l-1 2h-45v37h19l17 1-1 10h-35v41h46l1 10-2 1h-55l-1-58z" fill="#19325A"/>
<path transform="translate(1231,1096)" d="m0 0h7l14 4 9 6 5 6-2 4-6 3h-3l-6-7-8-3-7-1-9 3-5 5-2 4v10l4 7 5 4 15 7 12 6 8 7 5 10 1 5v8l-4 11-7 8-10 6-4 1h-16l-13-5-9-7-7-8 1-3 9-3 4 4 4 5 9 5 4 1h12l8-4 5-5 2-10-2-9-2-4-30-15-10-9-5-7-1-3v-16l5-10 8-7 7-3z" fill="#19305A"/>
<path transform="translate(1298,748)" d="m0 0h10l10 3 11 6 8 2v-6l3-1 21 2 1 1v8l-4 2-7 4-3 3h-3v-2l-3-1-2-1-18-2h-17l-10 3-10 7-9 10-6 12-1 3v21l3 12 2 3h-3l-7-7-8-13-3-7-1-5v-14l3-10 7-12 11-11 10-6 8-3z" fill="#A7AFBB"/>
<path transform="translate(925,380)" d="m0 0h29l15 2 13 5 9 7 6 8 2 4v3l-7-2-10-3-41-2-1 62-12 1-3-1z" fill="#A8AFBC"/>
<path transform="translate(1474,709)" d="m0 0 1 4 12 2 2 49-33 1-9 1 1 22v50l-1 4-5-1-5-4-4-9-1-8-1-68h30l15 1-1-3z" fill="#A9B0BC"/>
<path transform="translate(1346,856)" d="m0 0 6 5 6 7 6 11 7 14 2 11-12 6-14 5-24 5-11 1h-15l-19-3-17-6-21-12-2-4-8-4-9-9 1-2 8 6 12 7 17 6 18 4 10 1h14l20-3 21-7 16-7-9-21-4-8z" fill="#BBC2C9"/>
<path transform="translate(352,1098)" d="m0 0h83l1 1v9l-1 1h-36v100h-11l-1-1v-52l1-46-36-1z" fill="#183359"/>
<path transform="translate(326,869)" d="m0 0 7 6 10 15 3 7 2 4v3l-10 3v2l-13 5-21 5-20 2-19-1-15-3-8-3v-2l-6-2-3-2-9-3-11-7-14-12v-3l9 6 16 8 21 6 14 2h19l18-3 24-8 12-6-4-13z" fill="#A9B0BD"/>
<path transform="translate(1051,808)" d="m0 0h128l2 14-4 1-75 1h-19l-16-1 1 9-5-3v3l-3 1-6-10-2-6z" fill="#A8AFBC"/>
<path transform="translate(423,752)" d="m0 0h12l12 3 12 6 5 5 1 5-8-3-4-1h-13l-12 3-10 6-7 6-7 11-3 7-1 5v16l3 10-1 4h-3l-8-9-7-14-1-6v-17l4-12 8-11 8-7 10-5z" fill="#A8AFBC"/>
<path transform="translate(826,372)" d="m0 0 5 1 11 15 1 6-12 14-11 12-17 17-5 6-5-5-9-10-1-4h-2l1-2 11-13 12-13 9-10 11-12z" fill="#A8AFBC"/>
<path transform="translate(1082,738)" d="m0 0h19l11 4 10 9 6 11 1 7h-34l-41-1-1-3 6-11 8-9 8-5z" fill="#AAB1BD"/>
<path transform="translate(1472,856)" d="m0 0h7l4 7 8 19 4 13 2 5-1 5-11 7-16 6-12 2h-19l-16-3-3-1v-2l-9-3-14-10-2-4 16 5 16 3h20l15-3 17-7 4-3-2-12-7-21z" fill="#AAB1BD"/>
<path transform="translate(966,1109)" d="m0 0h18l12 3 7 5 3 5 1 5v8l-2 7-5 6-10 5-6 1h-17l-2-6v-38z" fill="#EFEFEF"/>
<path transform="translate(269,749)" d="m0 0h12l17 4 12 6 1 3-1 3-4 2h-29l-10 4-11 9-11 17-3 6h-2l1 18-4-2-3-11v-24l3-7h2l2-5 4-6-4 2v-3l7-7 10-6z" fill="#A8AFBC"/>
<path transform="translate(764,749)" d="m0 0h1l1 19h1l1-9h1l2 141 9 1v1h-5v3h2v8h-66v-9h47v-2l-3-1v-1h8v-146z" fill="#D2D7DA"/>
<path transform="translate(873,746)" d="m0 0h12l5 2-3 1-12 3-12 7-10 9-6 11-1 8 3 9 1 7v50l-1 53-20-2v-1l5-1-1-2h7l-1-2v-23l1-100 6-10 11-11 10-6z" fill="#B7BEC6"/>
<path transform="translate(982,829)" d="m0 0 2 1 2 10 7 10 10 14-1 49h-68v-9l52-1 2-2-6-1v-1h5l-1-50-2-8z" fill="#A8AFBC"/>
<path transform="translate(743,519)" d="m0 0h34l1 1-1 12-2 10h-55v-17l1-4z" fill="#A8AFBC"/>
<path transform="translate(1070,465)" d="m0 0 2 1-3 9-1 4 1 2h-2l-1 3-6 5v2l-5 5-5 4-5 3-3 3-5 3-4 4-7 4-7 2-1 2-8 3-24 3-42 1-6 1v2l-5 2v48l-1 3-4-1-1-30-1 23h-1l-1-37v-15l59-2 16-2 16-5 16-8 11-7 12-11 8-10z" fill="#B9BFC7"/>
<path transform="translate(925,380)" d="m0 0h29l15 2 13 5 9 7 6 8 2 4v3l-7-2 1-3h2l-5-8-12-5-12-3-8-1h-25l1 20v19l1 28 2 10-9 1-3-1z" fill="#B9C0C7"/>
<path transform="translate(624,768)" d="m0 0v3l-2 7v23l1 19v84h-59l3-3 41-1 8-1v-120l3-9 4-1z" fill="#B9C0C7"/>
<path transform="translate(1361,891)" d="m0 0 5 1 3 4v6l3 1-4 2-2 3-8 1-8 3-16 4-16 2-2 1h-22l-16-4-14-5-5-1v-2h-2v-2l-2-1 9 2 20 3 10 1h11l23-4 18-5 10-4z" fill="#A9B0BC"/>
<path transform="translate(1474,709)" d="m0 0 1 4 12 2-2 1 1 4 1 42-43-1-9-2-2-1-1 2-1-8h30l15 1-1-3z" fill="#BBC2C8"/>
<path transform="translate(488,1122)" d="m0 0 3 3 16 42v2h-35l12-36z" fill="#F0F0F0"/>
<path transform="translate(1449,1122)" d="m0 0h2l11 28 6 16v3l-34 1 1-5 11-34z" fill="#F0F0F0"/>
<path transform="translate(1115,750)" d="m0 0h6l6 10 2 9h-34l-36-1 1-3h7l22-11 9-3z" fill="#EFEFEF"/>
<path transform="translate(1431,631)" d="m0 0h1v6h8l5 3 1 16v40l7 1v1h-9l-11-1-1-8z" fill="#A8AFBC"/>
<path transform="translate(423,752)" d="m0 0h12l12 3 12 6 5 5 1 5-8-3-4-1v-2l-4-1 3-1-10-4-10-3-12-1v2l-10 3-3 3h-2l-2 4-7 6-2 4h-2l-2 8-1 9v15l3 5 4-1 2-5h1l1 13 3 10-1 4h-3l-8-9-7-14-1-6v-17l4-12 8-11 8-7 10-5z" fill="#BBC2C9"/>
<path transform="translate(769,821)" d="m0 0h1l1 79 9 1v1h-5v3h2v8h-66v-9h52l6 1z" fill="#A4AEB9"/>
<path transform="translate(362,890)" d="m0 0 6 2 13 5 19 5 24 3h16l18-2 15-4 16-7 3 1-7 7-18 7-14 3-8 1h-13l-5-1h-13l-24-5-8-2-3 1-10-6-7-6z" fill="#D0D5D8"/>
<path transform="translate(1294,217)" d="m0 0 7 6 12 12 11 14 8 11 13 20 8 16 7 16 8 22 6 23 4 25 2 16 1 26v15l-1 27v14h-2v-72l-2-21-4-28-3-8-3-10-2-11-6-16-9-21-2-6h-2l-2-3v-4h-2l-1-5h-2l-3-5v-3l-3-1-8-12-9-12-9-11-12-12z" fill="#AEB5C0"/>
<path transform="translate(1162,886)" d="m0 0 3 1-1 4-10 7-20 8-21 5h-29l-10-2 2-2-2-2h31l20-3 18-6 16-8z" fill="#D0D5D8"/>
<path transform="translate(481,1066)" d="m0 0 9 3 4 3v2l5-5 5-1 6 2 3 2-1 4-6 4-5 3h-7l-5-4-8-1-6 3-5 1-1-1v-6l3-5z" fill="#193259"/>
<path transform="translate(1394,897)" d="m0 0 16 5 16 3h20l15-3 10-4 8 1 3 3-8 4-20 5h-27l-21-5-9-4-3-3z" fill="#D1D6D9"/>
<path transform="translate(616,779)" d="m0 0h2l1 100 1 1v22l-1 2h-55l3-3 41-1 8-1z" fill="#D0D4D8"/>
<path transform="translate(1346,856)" d="m0 0 6 5 6 7 6 11 7 14 2 11-6 2 3-3-3-9-2-2-5 1-4 5-12 5-3-1 2-2-3-3 4-3 14-6-9-21-4-8z" fill="#B8BFC7"/>
<path transform="translate(1191,853)" d="m0 0h5l8 11 8 8-4 1-2 4-2 1-1-3v-3l-1-3h-2v-2h-7l-2 3h-2l-2 5h-2l-1 3-7 6-10 7-9 6-2-1 8-6v-5l10-8 7-6 8-11z" fill="#B9C0C7"/>
<path transform="translate(826,372)" d="m0 0 5 1 11 15 1 6-5-4-1-3-3-1-2-3-5 1-5 3-4 4-5 4h-2l-2 5-3 1-2 4-8 8h-2l-2 4-5 5h-2l-1 3-3-1 1-2 11-13 12-13 9-10 11-12z" fill="#BBC2C9"/>
<path transform="translate(1472,856)" d="m0 0h7l4 7 8 19 4 13-4 2-9 5-8-4 5-4 3-2-2-12-7-21z" fill="#B9C0C7"/>
<path transform="translate(1082,738)" d="m0 0h19l11 4 8 7-1 2h-17v-1l11-1-3-2-3 1h-11l1-4-5-1-4-1-9 3-11 8-3 1-2 4-6 8-3-1 2-6 6-9 8-7 8-4z" fill="#BAC1C8"/>
<path transform="translate(244,765)" d="m0 0 2 1-7 11h-2l-1 5-1 2v24l2 11h2l1-5-1-7 1-4 3-3 2-4 1 2-2 8-1 14 1 9-1 4-5-5-6-10-3-8-1-16 2-11 5-10 4-6 4 1z" fill="#D3D8DA"/>
<path transform="translate(322,893)" d="m0 0 4 1-7 4-1 3-13 5-20 5h-24l-20-4v-1l7-1h30l18-3 24-8z" fill="#CED3D6"/>
<path transform="translate(925,380)" d="m0 0h29l15 2 13 5 9 7 6 8 2 4v3l-7-2 1-3h2l-5-8-12-5-12-3-8-1-31-1-1 2-1-1z" fill="#D3D8DA"/>
<path transform="translate(1083,393)" d="m0 0 3 3 7 17 4 18v23l-4 18-3 9h-1l2-32-1-23-2-3-1-9-2-1 1-6 1-1-4-10z" fill="#BEC5CB"/>
<path transform="translate(777,632)" d="m0 0 2 1-14 7-15 6-2 2-7 2-13 1v1h-11l-4 1h-15l-1-1h-7l-1 1-14-1-15-4v-1h7l-10-3v-1l8 1 22 4h35l19-3 20-6z" fill="#B5BCC4"/>
<path transform="translate(1443,765)" d="m0 0 4 1 1 22v50l-1 4-5-1v-19z" fill="#B9C0C7"/>
<path transform="translate(743,519)" d="m0 0h34l1 1-1 12-2 10-4-2 1-2-3-10-1-2-18-2h-27l1 3-2 6-1 9h-1v-17l1-4z" fill="#B9C0C7"/>
<path transform="translate(1337,897)" d="m0 0h4v2l3 1-3 3-17 5-19 3h-11l-19-2-4-2 3-2h27l20-3z" fill="#CFD4D7"/>
<path transform="translate(601,614)" d="m0 0h2v2h2v2h2l7 8 10 8 4 1 9 7 4 4 22 12 8 3-2 1v2l-9-2-17-8-17-12-10-9-11-12-4-5z" fill="#BDC4CA"/>
<path transform="translate(543,834)" d="m0 0h2l1 27v17l-3 1-2 4-2-1-1-16-1-4-5-2-4 3 2-4 7-10 5-12z" fill="#B9C0C7"/>
<path transform="translate(1053,815)" d="m0 0 1 2h6v2l6 1 111 2v1l-75 1h-19l-16-1 1 9-5-3v3l-3 1-6-10z" fill="#C6CCD1"/>
<path transform="translate(849,552)" d="m0 0h1v54l-1 5h-5v-2h2l2-6v-12l-1-9-7 1-1 3-3 2h-4v2l-4 2 2-4 9-15 8-15z" fill="#B8BFC6"/>
<path transform="translate(873,746)" d="m0 0h12l5 2-3 1-12 3-12 7-7 6-4 1-1 2h-2l-2 4-3 4-1-1-1 24h-1v-26l6-9 10-10 10-6z" fill="#BBC2C8"/>
<path transform="translate(643,486)" d="m0 0h1l1 32v19l-2 2-6-11v-7l-2-12v-11l5 1 1 1z" fill="#B8BFC6"/>
<path transform="translate(930,610)" d="m0 0 3 1 1 3v16h-2l1 7 1 4-3 3-1 4-8 1v-2h-53l-1-2 56-1 1-8h1l1 7 1-4v-17l1-10z" fill="#B8BFC6"/>
<path transform="translate(750,392)" d="m0 0 4 1 9 7 8 8 9 12v4l-5-1-10-7-11-6 2-1v-8l-6-5v-3z" fill="#BBC1C8"/>
<path transform="translate(1474,709)" d="m0 0 1 4 6 1 3 2-2 3v33l-1 2-7 1-6-1v-1h8l-1-3z" fill="#AAB1BD"/>
<path transform="translate(1444,640)" d="m0 0h1l1 16v40l7 1v1h-9l-11-1v-33h1l1 29 4 1 3-3 1-15-2-33z" fill="#C2C8CE"/>
<path transform="translate(1256,908)" d="m0 0 10 2 16 5 12 3h22l9-2 13-2 12-3 7-1 1-2h6l-3 2-14 5-24 5-11 1h-15l-19-3-17-6-5-3z" fill="#C4CBCF"/>
<path transform="translate(1030,889)" d="m0 0 19 8 21 6 6 1v2l3 2-8 1-21-6v2l-5-2-11-8-4-4z" fill="#B8BFC7"/>
<path transform="translate(198,883)" d="m0 0 12 7 14 7 21 6 6 1-3 2-9 1-15-5 1 1 5 3-2 1-14-8-15-13z" fill="#BAC1C8"/>
<path transform="translate(330,716)" d="m0 0 2 3h2v2h2l3 5-5 4-10 14-2 2v-2l-3-1 1-6 8-17z" fill="#D0D5D8"/>
<path transform="translate(326,869)" d="m0 0 7 6 10 15-1 2-5-3v2l-8 7-12 5-3-1 4-2v-3l6-3v-2l8-4-4-13z" fill="#B9C0C7"/>
<path transform="translate(294,753)" d="m0 0 7 1 9 5 1 3-1 3-4 2-26-1v-1h7v-2h11l-1-3-5-3v-3z" fill="#BAC1C8"/>
<path transform="translate(988,845)" d="m0 0h2l7 11 4 5-2 5-5 1-4 7-1 5h-1z" fill="#BAC1C8"/>
<path transform="translate(1171,904)" d="m0 0 3 1-16 8-9 3-17 3-9 1h-33l-18-4-3-2 8 1 14 3h29l11-3 13-2 10-2 9-4z" fill="#C2C8CD"/>
<path transform="translate(362,890)" d="m0 0 6 2 13 5 19 5 2 2 5 1v2h-8l-17-4-3 1-10-6-7-6z" fill="#BDC4CA"/>
<path transform="translate(1078,739)" d="m0 0h8l-2 2h-6l3 3-12 8-4 2-2 4-6 8-3-1 2-6 6-9 8-7z" fill="#D0D5D8"/>
<path transform="translate(1394,897)" d="m0 0 16 5 16 3 17 1v1l-7 1 3 3h-12l-21-5-9-4-3-3z" fill="#CCD2D5"/>
<path transform="translate(634,788)" d="m0 0h1v18l-1 24-1 83h-1v-120z" fill="#D4D9DB"/>
<path transform="translate(1294,217)" d="m0 0 7 6 12 12 11 14 8 11 13 20 1 7-3-3v-4h-2l-1-5h-2l-3-5v-3l-3-1-8-12-9-12-9-11-12-12z" fill="#BBC1C9"/>
<path transform="translate(983,838)" d="m0 0 2 3 2 8v29l-1 12-2 3-1-24z" fill="#095E46"/>
<path transform="translate(1267,807)" d="m0 0h1l1 15 3 12 2 3h-3l-7-7-3-5 1-12 2-3h2z" fill="#BCC3C9"/>
<path transform="translate(672,751)" d="m0 0 5 2 6 7-1 2-13 2-8-1 5-5 4-2v-2l2-2z" fill="#B9C0C7"/>
<path transform="translate(245,796)" d="m0 0 1 2-2 8-1 14 1 9-1 4-5-5-4-6v-5h3v2h2l1-5-1-7 1-4 3-3z" fill="#C0C6CC"/>
<path transform="translate(1346,284)" d="m0 0 4 5 10 23 8 22 4 14v10l-2-4-4-13-2-11-6-16-9-21-3-6z" fill="#AEB5C0"/>
<path transform="translate(511,878)" d="m0 0 2 1-1 4-8 6-7 6-11 6-3-1 5-4 3-4 5-4 11-7z" fill="#BAC1C8"/>
<path transform="translate(1077,752)" d="m0 0 5 2-4 5-2 2-3 2-6 3h-7v-3l10-8z" fill="#BBC2C9"/>
<path transform="translate(1346,856)" d="m0 0 4 4 6 11 6 9v8l-4-1-12-26-1-4z" fill="#ACB3BE"/>
<path transform="translate(1211,258)" d="m0 0 4 2 11 9 12 11 16 16 6 8-1 2-12-13-15-15-3-4-5-3-1-3-4-1-7-6z" fill="#BEC4CB"/>
<path transform="translate(893,750)" d="m0 0 6 2 6 7v3l-10 1-3-1-10 1 1-2 5-2h3l2-4v-4z" fill="#B8BFC6"/>
<path transform="translate(743,519)" d="m0 0h34l1 1-1 12-2 2-1-8-7-3v-1l-32-1v-1z" fill="#C7CCD2"/>
<path transform="translate(1135,222)" d="m0 0 7 1 24 8 22 11 18 11 2 3-4-1-15-9-14-8-18-8-22-7z" fill="#BBC1C9"/>
<path transform="translate(777,632)" d="m0 0 2 1-14 7-15 6-2 2-7 2h-9l-5-1 3-2 19-4 19-7z" fill="#BCC2C9"/>
<path transform="translate(260,751)" d="m0 0h6l-5 5-8 5-7 8-3 2 2-5-4 2v-3l7-7 10-6z" fill="#B8BEC6"/>
<path transform="translate(242,913)" d="m0 0 9 1 15 4h21l15-2h11l-3 2-26 3-19-1-15-3-8-3z" fill="#C5CBD0"/>
<path transform="translate(700,381)" d="m0 0h20l4 2-27 1-11 3-16 8-3 1v2l-5 4-2-1 10-9 16-8z" fill="#B3BAC3"/>
<path transform="translate(769,821)" d="m0 0h1l1 79 9 1v1h-5v3h2v2h-3v-2h-4-1z" fill="#ADB4BF"/>
<path transform="translate(383,796)" d="m0 0 2 1 2 16 6 12h2l2-2 2 2 2-1 2 7-1 4h-3l-8-9-7-14-1-6z" fill="#CCD2D5"/>
<path transform="translate(1338,752)" d="m0 0 23 2 1 4h-25v-5z" fill="#E8EAEA"/>
<path transform="translate(543,834)" d="m0 0h2v37h-1l-1-17-4-1-2-4 5-12z" fill="#D2D7D9"/>
<path transform="translate(1357,908)" d="m0 0h7l-3 2-14 5-24 5h-8l3-3 20-3 12-3 7-1z" fill="#C4CACF"/>
<path transform="translate(1447,788)" d="m0 0h1v50l-1 4-5-1 4-17v-15z" fill="#D2D7DA"/>
<path transform="translate(1350,861)" d="m0 0h2l6 7 6 11 7 14 1 7-2-3-7-13-12-20z" fill="#D4D9DB"/>
<path transform="translate(1069,914)" d="m0 0 8 1 14 3h29l11-3 8 2v1l-16 2h-33l-18-4z" fill="#C3C9CE"/>
<path transform="translate(850,761)" d="m0 0h3l2 1-4 6h-2l-2 4-3 4-1-1-1 24h-1v-26l6-9z" fill="#D0D6D8"/>
<path transform="translate(222,899)" d="m0 0h8l21 5-3 2-9 1-15-5v-2z" fill="#B7BEC6"/>
<path transform="translate(984,900)" d="m0 0h5l-3 4h-31l6-3z" fill="#D4D9DB"/>
<path transform="translate(232,780)" d="m0 0 1 4-1 3v13l1 17-3-3-2-12v-8l2-11z" fill="#E2E4E6"/>
<path transform="translate(318,741)" d="m0 0h2v2l2 1-1 5-6 12-4-2 3-10z" fill="#E3E5E6"/>
<path transform="translate(1433,664)" d="m0 0h1l1 29 4 1 3-3 1-12 2-1v16l-1 2h-10l-1-2z" fill="#B9C0C7"/>
<path transform="translate(643,486)" d="m0 0h1l1 32v19l-2 2-3-6v-2h2l1-8z" fill="#D4D9DB"/>
<path transform="translate(244,765)" d="m0 0 2 1-7 11h-2l-1 5-1 2h-2l-1-6 7-11 4 1z" fill="#CFD4D7"/>
<path transform="translate(771,410)" d="m0 0 5 5 4 5v4l-5-1-10-7 2-2 2 1 1-2 2 1z" fill="#D1D6D8"/>
<path transform="translate(1294,217)" d="m0 0 7 6 12 12 11 14 1 5-5-5-6-8-8-10-12-12z" fill="#C0C6CC"/>
<path transform="translate(1030,889)" d="m0 0 19 8 6 2-2 1-1 2-8-3h-3l-5-2-4-5-2-1z" fill="#AAB1BD"/>
<path transform="translate(1221,881)" d="m0 0 11 7 10 6 5 2-2 2-5 1-5-5-5-2-9-9z" fill="#B4BBC4"/>
<path transform="translate(1068,750)" d="m0 0v3l-3 1-2 4-6 8-3-1 2-6 4-6 3-2z" fill="#EBECEC"/>
<path transform="translate(1471,913)" d="m0 0 4 1-4 2-2 2-12 2h-19v-1l11-1 10-2z" fill="#C1C7CD"/>
<path transform="translate(983,393)" d="m0 0 7 2 4 5 1 4h-2v2l-6-1-2-3 3-1-2-5z" fill="#B9C0C7"/>
<path transform="translate(1306,178)" d="m0 0 5 2 7 7 8 7 14 14 1 4-21-21-8-7-6-5z" fill="#BCC2CA"/>
<path transform="translate(1107,741)" d="m0 0 5 1 8 7-1 2h-17v-1l11-1-7-4z" fill="#D2D7DA"/>
<path transform="translate(765,858)" d="m0 0h1l1 13h1v24h-1v-5h-2z" fill="#B9C0C7"/>
<path transform="translate(982,743)" d="m0 0 2 3 1 6 2-4 2 5-3 5-2 13-2-1z" fill="#B6BCC6"/>
<path transform="translate(986,849)" d="m0 0h1v29l-1 12-2 3v-20h2z" fill="#01743D"/>
<path transform="translate(646,417)" d="m0 0 2 1v5l-4 6-5 5-3 4 1-6z" fill="#B5BCC4"/>
<path transform="translate(1450,906)" d="m0 0h2l-1 3-3 2h-9l-3-2-7-1v-1z" fill="#F4F4F3"/>
<path transform="translate(1394,897)" d="m0 0 16 5v2l5 1-4 2-9-3-5-2-3-3z" fill="#BCC2C9"/>
<path transform="translate(618,879)" d="m0 0 2 1v22l-1 2-3-1-2-3 2-1 1-4z" fill="#D5DADC"/>
<path transform="translate(1040,897)" d="m0 0 5 2 7 2 1-1h5l1 3-6 1-3-1v2l-5-2-5-5z" fill="#B5BCC5"/>
<path transform="translate(1064,823)" d="m0 0h3l1 9-5-3v3l-3 1-3-5 1-2 5-2 1 3h2z" fill="#D0D5D8"/>
<path transform="translate(1211,258)" d="m0 0 4 2 11 9 8 7h-3l-8-6v-2l-4-1-7-6z" fill="#B6BDC6"/>
<path transform="translate(1431,631)" d="m0 0h1v6h8l-4 1-1 2-2-1 1 23-2 1-1-20z" fill="#B6BDC5"/>
<path transform="translate(1443,765)" d="m0 0 4 1v18l-2-3-2-7z" fill="#C5CBD0"/>
<path transform="translate(362,890)" d="m0 0 6 2 7 3v2l2 1v2l-7-1-8-7z" fill="#CED3D6"/>
<path transform="translate(679,756)" d="m0 0 4 4-1 2-10 1-2-2 3-3z" fill="#D5DADB"/>
<path transform="translate(694,650)" d="m0 0h21l-2 1v2h-15z" fill="#C3CACF"/>
<path transform="translate(1274,759)" d="m0 0 2 4-6 5h-2l-2 5-2-4h3v-2l-2-1 5-5z" fill="#B8BFC6"/>
<path transform="translate(901,755)" d="m0 0 4 4v3l-10 1-3-1-4-1 13-4z" fill="#D3D8DA"/>
<path transform="translate(1344,766)" d="m0 0h11l-1 2-3 1-3 3h-3v-2l-3-1-2-2z" fill="#C0C6CC"/>
<path transform="translate(1366,338)" d="m0 0h3l3 10v10l-2-4-4-13z" fill="#C1C7CD"/>
<path transform="translate(242,913)" d="m0 0 9 1 15 4 5 1v1l-13-1-16-5z" fill="#C7CDD1"/>
<path transform="translate(242,820)" d="m0 0 2 4v8h-3l-6-8 1-3 3 4z" fill="#D3D7DA"/>
<path transform="translate(883,746)" d="m0 0 7 2-3 1-14 3-1-4z" fill="#B1B8C1"/>
<path transform="translate(375,896)" d="m0 0 9 2-1 4h-2v2l-6-2-3-3 5 1v-2l-3-1z" fill="#B8BEC6"/>
<path transform="translate(419,909)" d="m0 0h8l18 2v1h-22l-7-1z" fill="#B9C0C7"/>
<path transform="translate(722,648)" d="m0 0 10 1-4 3h-11l-2 1-2-2h2v-2z" fill="#B7BEC6"/>
<path transform="translate(833,900)" d="m0 0h11l2 4h-17v-1l5-1z" fill="#D4D9DB"/>
<path transform="translate(1188,243)" d="m0 0 12 6 8 6-3 1-17-11z" fill="#B9BFC7"/>
<path transform="translate(721,521)" d="m0 0 5 1-2 4-2 7-1 9h-1v-17z" fill="#C2C8CD"/>
<path transform="translate(1224,232)" d="m0 0 5 2 9 7v2l4 1 2 4-4-2-16-13z" fill="#B9C0C8"/>
<path transform="translate(1325,916)" d="m0 0h7l-3 3-6 1h-8l3-3z" fill="#C1C7CD"/>
<path transform="translate(1346,856)" d="m0 0 4 4 3 7-2 3-6-11z" fill="#BCC3CA"/>
<path transform="translate(1268,822)" d="m0 0h1l3 12 2 3h-3l-3-3-1-6-1-5z" fill="#D4D8DB"/>
<path transform="translate(239,775)" d="m0 0 1 3-4 10-1 12h-1v-16l3-7h2z" fill="#B9C0C7"/>
<path transform="translate(326,869)" d="m0 0 7 6 4 6 2 5-6-5-3-5-3-3z" fill="#C5CBD0"/>
<path transform="translate(644,526)" d="m0 0h1v11l-2 2-3-6v-2h2l1-4z" fill="#D0D5D8"/>
<path transform="translate(383,899)" d="m0 0 8 1 2 2h-2v2l-9-1z" fill="#C1C7CD"/>
<path transform="translate(329,875)" d="m0 0 4 4v2h2l1 7-4-1-3-9z" fill="#A8AFBC"/>
<path transform="translate(234,817)" d="m0 0h3v2h2l1-2 2 5-3 4-5-4z" fill="#BBC2C8"/>
<path transform="translate(328,910)" d="m0 0h5l-2 2-13 4h-4v-2z" fill="#C6CCD1"/>
<path transform="translate(1221,881)" d="m0 0 11 7 1 5-4-2-8-8z" fill="#C6CCD1"/>
<path transform="translate(1354,754)" d="m0 0h7l1 4-9-1-5-1v-1z" fill="#D0D5D8"/>
<path transform="translate(993,398)" d="m0 0 4 4 2 4v3l-7-2 1-3h2z" fill="#CDD2D6"/>
<path transform="translate(1178,814)" d="m0 0 2 1 1 7h-7l2-6h2z" fill="#B9C0C7"/>
<path transform="translate(981,739)" d="m0 0 3 1 3 10-2 4-2-8h-2z" fill="#056742"/>
<path transform="translate(849,593)" d="m0 0h1v13l-1 5h-5v-2h2l2-6z" fill="#C8CDD2"/>
<path transform="translate(543,834)" d="m0 0h2v12l-2 1-1-2v-8z" fill="#DDE0E2"/>
<path transform="translate(771,900)" d="m0 0 9 1v1h-5v3h2v2h-3v-2l-3-1z" fill="#CDD2D6"/>
<path transform="translate(198,883)" d="m0 0 12 7 3 2v2l-5-2-6-3-4-4z" fill="#B2B9C3"/>
<path transform="translate(545,861)" d="m0 0h1v17l-3 1v-7l1-1z" fill="#C3C9CF"/>
<path transform="translate(658,403)" d="m0 0v3l-2 5-3 1-4 4v-3z" fill="#B4BBC4"/>
<path transform="translate(1248,291)" d="m0 0 6 5 6 8-1 2-11-12z" fill="#BAC0C8"/>
<path transform="translate(1339,272)" d="m0 0 4 5 3 5v5l-3-3v-4h-2l-2-5z" fill="#B7BEC6"/>
<path transform="translate(1256,258)" d="m0 0 4 2 8 8 1 4-13-13z" fill="#BBC1C9"/>
<path transform="translate(1030,889)" d="m0 0 10 5-4 3-4-5-2-1z" fill="#B6BDC5"/>
<path transform="translate(1191,853)" d="m0 0h5l2 5-5 1-2 1z" fill="#CAD0D4"/>
<path transform="translate(232,780)" d="m0 0 1 4-2 9-2 1v-7z" fill="#DFE1E3"/>
<path transform="translate(670,664)" d="m0 0h9l7 3 3 2-8-1-11-3z" fill="#C2C8CD"/>
<path transform="translate(1083,393)" d="m0 0 3 3 4 9v2l-3-1-4-10z" fill="#C5CBCF"/>
</svg>
